<?xml version="1.0" encoding="UTF-8"?><svg xmlns="http://www.w3.org/2000/svg" xmlns:xlink="http://www.w3.org/1999/xlink" viewBox="0 0 1472 751.75"><defs><clipPath id="clippath"><rect x="853.5" y="89.5" width="452" height="657" fill="none"/></clipPath></defs><g isolation="isolate"><g id="Layer_4"><g><rect x=".52" y=".52" width="1391.95" height="571.95"/><path d="M1391.95,1.05V571.95H1.05V1.05H1391.95m1.05-1.05H0V573H1393V0h0Z"/></g><text transform="translate(108.88 193.82)" fill="#fff" font-family="Helvetica, Helvetica" font-size="18"><tspan x="0" y="0">This</tspan><tspan x="34" y="0" letter-spacing=".13em"> </tspan><tspan x="41.27" y="0">portfolio</tspan><tspan x="105.31" y="0" letter-spacing=".13em"> </tspan><tspan x="112.57" y="0">is</tspan><tspan x="125.57" y="0" letter-spacing=".13em"> </tspan><tspan x="132.83" y="0">a</tspan><tspan x="142.84" y="0" letter-spacing=".13em"> </tspan><tspan x="150.1" y="0">curated</tspan><tspan x="210.14" y="0" letter-spacing=".13em"> </tspan><tspan x="217.41" y="0">selection</tspan><tspan x="288.45" y="0" letter-spacing=".13em"> </tspan><tspan x="295.71" y="0">of</tspan><tspan x="310.72" y="0" letter-spacing=".13em"> </tspan><tspan x="317.99" y="0">my</tspan><tspan x="341.98" y="0" letter-spacing=".13em"> </tspan><tspan x="349.24" y="0">most</tspan><tspan x="388.25" y="0" letter-spacing=".13em"> </tspan><tspan x="395.51" y="0">significant</tspan><tspan x="475.55" y="0" letter-spacing=".13em"> </tspan><tspan x="482.82" y="0">works</tspan><tspan x="529.82" y="0" letter-spacing=".13em"> </tspan><tspan x="537.08" y="0">and </tspan><tspan x="0" y="21.6">research</tspan><tspan x="70.03" y="21.6" letter-spacing=".07em"> </tspan><tspan x="76.3" y="21.6">experiences,</tspan><tspan x="178.36" y="21.6" letter-spacing=".07em"> </tspan><tspan x="184.62" y="21.6">meticulously</tspan><tspan x="283.66" y="21.6" letter-spacing=".07em"> </tspan><tspan x="289.93" y="21.6">crafted</tspan><tspan x="344.95" y="21.6" letter-spacing=".07em"> </tspan><tspan x="351.22" y="21.6">to</tspan><tspan x="366.23" y="21.6" letter-spacing=".07em"> </tspan><tspan x="372.5" y="21.6">showcase</tspan><tspan x="452.54" y="21.6" letter-spacing=".07em"> </tspan><tspan x="458.81" y="21.6">my</tspan><tspan x="482.8" y="21.6" letter-spacing=".07em"> </tspan><tspan x="489.07" y="21.6">readiness </tspan><tspan x="0" y="43.2">and</tspan><tspan x="30.03" y="43.2" letter-spacing="0em"> </tspan><tspan x="35.21" y="43.2">passion</tspan><tspan x="97.25" y="43.2" letter-spacing="0em"> </tspan><tspan x="102.43" y="43.2">for</tspan><tspan x="123.43" y="43.2" letter-spacing="0em"> </tspan><tspan x="128.61" y="43.2">pursuing</tspan><tspan x="197.66" y="43.2" letter-spacing="0em"> </tspan><tspan x="202.83" y="43.2">a</tspan><tspan x="212.85" y="43.2" letter-spacing="0em"> </tspan><tspan x="218.02" y="43.2">graduate</tspan><tspan x="289.08" y="43.2" letter-spacing="0em"> </tspan><tspan x="294.26" y="43.2">degree</tspan><tspan x="350.31" y="43.2" letter-spacing="0em"> </tspan><tspan x="355.48" y="43.2">in</tspan><tspan x="369.49" y="43.2" letter-spacing="0em"> </tspan><tspan x="374.67" y="43.2">an</tspan><tspan x="394.69" y="43.2" letter-spacing="0em"> </tspan><tspan x="399.87" y="43.2">interdisciplinary</tspan><tspan x="523.92" y="43.2" letter-spacing="0em"> </tspan><tspan x="529.1" y="43.2">field. </tspan><tspan x="0" y="64.8">Drawing</tspan><tspan x="66.02" y="64.8" letter-spacing=".14em"> </tspan><tspan x="73.51" y="64.8">from</tspan><tspan x="109.51" y="64.8" letter-spacing=".14em"> </tspan><tspan x="117" y="64.8">a</tspan><tspan x="127.01" y="64.8" letter-spacing=".14em"> </tspan><tspan x="134.49" y="64.8">diverse</tspan><tspan x="192.52" y="64.8" letter-spacing=".14em"> </tspan><tspan x="200" y="64.8">range</tspan><tspan x="246.04" y="64.8" letter-spacing=".14em"> </tspan><tspan x="253.53" y="64.8">of</tspan><tspan x="268.54" y="64.8" letter-spacing=".14em"> </tspan><tspan x="276.02" y="64.8">projects</tspan><tspan x="339.05" y="64.8" letter-spacing=".14em"> </tspan><tspan x="346.54" y="64.8">and</tspan><tspan x="376.57" y="64.8" letter-spacing=".14em"> </tspan><tspan x="384.05" y="64.8">research</tspan><tspan x="454.09" y="64.8" letter-spacing=".14em"> </tspan><tspan x="461.57" y="64.8">endeavors,</tspan><tspan x="550.63" y="64.8" letter-spacing=".14em"> </tspan><tspan x="558.12" y="64.8">it </tspan><tspan x="0" y="86.4">o</tspan><tspan x="10.01" y="86.4" letter-spacing="-.02em">f</tspan><tspan x="14.7" y="86.4">fers a comprehensive view of my journey and areas of expertise. </tspan></text><g><path d="M365.5,417.82c0,3.6-.85,6.01-2.52,8.1-.44,.54-.44,.92-.14,1.5,3.22,6.41,6.42,12.83,9.58,19.27,.43,.89,.77,.83,1.45,.31,1.77-1.34,3.46-2.77,4.97-4.4,.58-.62,1.23-1.06,1.96-.36,.73,.7,.28,1.38-.29,1.98-1.77,1.86-3.68,3.56-5.82,4.99-.62,.41-.63,.75-.32,1.36,1.54,3.03,3.01,6.09,4.56,9.11,.76,1.47,.99,2.89,.02,4.32-.3,.45-.11,.78,.1,1.16,.56,1,1.12,2,1.67,3,.41,.73,.82,1.53-.13,2.09-.97,.57-1.45-.16-1.85-.92-.27-.51-.58-.99-.84-1.5-.63-1.25-1.17-2.41-3-2.35-1.27,.04-2.15-1-2.72-2.18-1.49-3.05-3.05-6.07-4.52-9.13-.37-.77-.7-.82-1.47-.54-3.35,1.23-6.81,1.99-10.39,2.11-.68,.02-.96,.17-.91,.9,.05,.76-.36,1.27-1.16,1.26-.8-.02-1.16-.56-1.11-1.31,.04-.66-.21-.83-.84-.85-3.61-.13-7.12-.88-10.5-2.14-.77-.29-1.1-.16-1.46,.57-1.42,2.96-2.94,5.87-4.36,8.83-.82,1.73-2.04,2.73-4.01,2.62-.52-.03-.73,.22-.95,.63-.59,1.11-1.22,2.2-1.84,3.3-.37,.66-.86,1.15-1.66,.74-.85-.43-.75-1.14-.35-1.85,.61-1.1,1.2-2.21,1.84-3.3,.26-.44,.29-.79,0-1.25-.83-1.27-.73-2.58-.05-3.91,1.59-3.13,3.12-6.29,4.72-9.42,.32-.62,.27-.95-.34-1.36-2.07-1.39-3.93-3.03-5.65-4.83-.61-.64-1.25-1.34-.38-2.14,.81-.74,1.45-.11,2.03,.51,1.52,1.62,3.22,3.04,5,4.37,.63,.47,.88,.38,1.22-.32,3.21-6.5,6.46-12.99,9.71-19.47,.25-.5,.22-.83-.14-1.3-4.48-5.87-3.07-13.49,3.23-17.45,.5-.32,.64-.63,.61-1.19-.11-1.75-.2-3.51-.22-5.27-.03-2.77,2.16-4.99,4.98-5.1,2.59-.11,4.75,1.8,4.99,4.5,.16,1.83,.24,3.66,.3,5.49,.02,.69,.27,1.06,.88,1.41,3.98,2.27,5.97,5.75,6.11,9.42Zm-9.32,35.61c3.05-.25,6.02-.87,8.93-1.84,.86-.29,1.03-.55,.6-1.39-3.15-6.22-6.28-12.46-9.35-18.72-.45-.92-.87-1.35-1.96-1.07-.6,.16-1.29,.02-1.93-.08-.5-.07-.76,.05-.98,.51-3.25,6.56-6.51,13.11-9.8,19.65-.29,.58-.15,.76,.4,.96,3.03,1.09,6.16,1.74,9.37,1.99,.68,.05,1.28,.13,1.2-.92-.05-.64,.42-1.07,1.1-1.08,.67-.01,1.18,.41,1.12,1.04-.1,1.15,.59,1,1.29,.95Zm-11.81-34.77c0,5.26,4.24,9.52,9.44,9.5,5.17-.03,9.38-4.26,9.38-9.45,0-5.26-4.23-9.5-9.45-9.49-5.18,.02-9.37,4.24-9.37,9.44Z" fill="none" stroke="#fff" stroke-miterlimit="10" stroke-width=".94"/><path d="M347.36,418.65c0-3.53,2.88-6.4,6.41-6.4,3.52,0,6.4,2.89,6.41,6.41,0,3.54-2.84,6.42-6.37,6.44-3.6,.02-6.46-2.84-6.46-6.45Z" fill="none" stroke="#fff" stroke-miterlimit="10" stroke-width=".94"/></g><g><path d="M516.56,450.6c-2.11-1.63-3.78-2.94-5.48-4.23-1.14-.86-.27-1.68,.06-2.46,4.9-11.44-1.47-24.25-13.55-27.2-8.52-2.08-17.43,1.84-21.84,9.6-4.31,7.57-3,17.19,3.19,23.44,6.33,6.39,15.87,7.91,23.52,3.42,2.2-1.29,3.36-1.01,4.95,.74,2.41,2.65,5.06,5.09,7.69,7.52,1.1,1.01,1.5,2.08,1.48,3.57-.08,7.3-.88,8.14-8.2,8.14-12.7,0-25.4,0-38.1-.01-4.56,0-6.18-1.67-6.18-6.27,0-18.94,0-37.89,0-56.83,0-4.41,1.73-6.15,6.11-6.15,13.35,0,26.69-.01,40.04,0,4.72,0,6.31,1.62,6.31,6.35,0,12.63,0,25.26,0,37.89,0,.64,0,1.28,0,2.5Z" fill="none" stroke="#fff" stroke-miterlimit="10"/><path d="M492.71,418.21c13.66,.03,22.21,14.11,15.99,25.89-.89,1.7-.73,2.48,.77,3.62,6.75,5.1,13.39,10.35,20.09,15.52,1.21,.93,2.1,1.99,1.89,3.61-.17,1.3-.9,2.24-2.14,2.74-1.53,.61-2.81,.15-3.93-.93-3.66-3.54-7.31-7.09-10.96-10.64-2.62-2.55-5.31-5.04-7.85-7.67-1.06-1.1-1.71-1.15-2.99-.2-8.33,6.2-20.11,3.96-25.59-4.76-5.45-8.67-2.41-20.19,6.61-25.06,2.63-1.42,5.45-2.17,8.11-2.1Zm14.92,17.7c0-7.96-6.54-14.58-14.45-14.63-8.12-.06-14.82,6.64-14.77,14.77,.05,7.95,6.62,14.49,14.57,14.51,8.05,.02,14.65-6.58,14.65-14.64Z" fill="none" stroke="#fff" stroke-miterlimit="10"/><path d="M460.8,438.66c0,8.6-.04,17.2,.04,25.8,.02,1.72-.54,2.2-2.19,2.14-3.4-.11-4.84-1.42-4.85-4.85-.02-15.48-.02-30.96,0-46.44,0-3.66,2.31-5.45,5.94-4.84,1.35,.23,1.03,1.18,1.04,1.95,.03,5.66,.02,11.32,.02,16.99,0,3.08,0,6.16,0,9.25Z" fill="none" stroke="#fff" stroke-miterlimit="10"/><path d="M450.56,438.61c0,6.45-.05,12.9,.03,19.35,.02,1.58-.42,2.11-2.05,2.1-4.19-.04-4.97-.7-4.97-4.8,0-11.25-.01-22.5,0-33.76,0-3.85,2.72-5.76,6.3-4.47,1.09,.4,.66,1.32,.67,2.01,.04,6.52,.02,13.04,.02,19.57Z" fill="none" stroke="#fff" stroke-miterlimit="10"/><path d="M494.6,434.32c0,2.29-.04,4.59,.02,6.88,.03,1.15-.49,1.49-1.56,1.48-1.03,0-1.62-.26-1.62-1.44,.03-4.73,.03-9.47,0-14.2,0-1.15,.53-1.45,1.58-1.48,1.23-.04,1.64,.46,1.61,1.65-.06,2.37-.02,4.73-.02,7.1,0,0,0,0-.01,0Z" fill="none" stroke="#fff" stroke-miterlimit="10"/><path d="M501.44,437.38c0,1.22-.05,2.43,.02,3.65,.06,1.13-.22,1.7-1.52,1.69-1.2-.02-1.65-.41-1.62-1.62,.06-2.57,.08-5.15,0-7.72-.04-1.3,.57-1.53,1.68-1.55,1.12-.02,1.53,.36,1.46,1.49-.08,1.35-.02,2.72-.02,4.07Z" fill="none" stroke="#fff" stroke-miterlimit="10"/><path d="M487.74,437.29c0,1.21-.05,2.43,.02,3.64,.07,1.23-.27,1.79-1.65,1.79-1.35,0-1.5-.66-1.49-1.73,.04-2.57,.05-5.14,0-7.71-.03-1.17,.5-1.46,1.54-1.46,1,0,1.66,.17,1.6,1.39-.07,1.35-.02,2.71-.01,4.07Z" fill="none" stroke="#fff" stroke-miterlimit="10"/></g><g><path d="M611.4,462.64c-10.14,.08-18.75-3.88-26.56-9.98-6.1-4.77-10.87-10.71-15.18-17.06-.34-.5-.37-.96-.05-1.45,7.6-11.4,16.84-20.93,30.23-25.32,11.51-3.77,22.41-1.8,32.6,4.5,8.4,5.2,14.93,12.29,20.35,20.46,.43,.64,.59,1.18,.11,1.9-6.42,9.64-14.2,17.82-24.72,23.04-5.29,2.63-10.89,3.94-16.78,3.91Zm-.16-7.4c11.31,.02,20.45-9.07,20.48-20.37,.03-11.3-9.07-20.42-20.39-20.45-11.29-.03-20.39,8.99-20.44,20.23-.04,11.46,8.95,20.56,20.35,20.58Z" fill="none" stroke="#fff" stroke-miterlimit="10"/><path d="M624.05,434.67c.21,6.84-5.56,12.78-12.58,12.95-6.84,.16-12.76-5.61-12.94-12.63-.18-6.85,5.54-12.71,12.62-12.93,6.85-.22,12.69,5.49,12.91,12.61Z" fill="none" stroke="#fff" stroke-miterlimit="10"/></g></g><g id="Layer_2"><rect x="853.5" y="89.5" width="452" height="657" fill="#e6e6e6"/><text transform="translate(879 133.8)" font-family="Helvetica-Bold, Helvetica" font-size="18"><tspan x="0" y="0">KE</tspan><tspan x="25" y="0" letter-spacing="-.02em">Y</tspan><tspan x="36.69" y="0" xml:space="preserve"> FOCUSES:</tspan></text><text transform="translate(871.88 193.8)" font-family="Helvetica-Bold, Helvetica" font-size="18"><tspan x="0" y="0">-Architecture</tspan><tspan x="0" y="37">-Resiliency</tspan><tspan x="0" y="74">-Sustainability</tspan><tspan x="0" y="111">-Climate Response</tspan><tspan x="0" y="148">-Disaster Risk Management</tspan><tspan x="0" y="185">-Reseach</tspan><tspan x="0" y="222">-</tspan><tspan x="5.99" y="222" letter-spacing="-.07em">T</tspan><tspan x="15.66" y="222">ool Development</tspan><tspan x="0" y="259">-Improving </tspan><tspan x="98" y="259" letter-spacing="-.02em">V</tspan><tspan x="109.69" y="259">isualizations</tspan><tspan x="0" y="296">-Interdisciplinary</tspan></text><line x1="878" y1="149" x2="1266" y2="149" fill="none" stroke="#000" stroke-miterlimit="10"/><text transform="translate(879 593.3)" font-family="Helvetica-Bold, Helvetica" font-size="18"><tspan x="0" y="0">PORTFOLIOS:</tspan></text><line x1="878" y1="608.5" x2="1266" y2="608.5" fill="none" stroke="#000" stroke-miterlimit="10"/></g><g id="Layer_5"><g><g><circle cx="928.5" cy="681.5" r="36.09" fill="#333"/><path d="M928.5,645.83c19.67,0,35.67,16,35.67,35.67s-16,35.67-35.67,35.67-35.67-16-35.67-35.67,16-35.67,35.67-35.67m0-.83c-20.16,0-36.5,16.34-36.5,36.5s16.34,36.5,36.5,36.5,36.5-16.34,36.5-36.5-16.34-36.5-36.5-36.5h0Z"/></g><text transform="translate(914.62 694.51)" fill="#fff" font-family="Helvetica, Helvetica" font-size="36"><tspan x="0" y="0">G</tspan></text></g></g><g id="Layer_1"><g><g><rect x="1031.41" y="658.41" width="230.17" height="60.17" fill="#333"/><path d="M1261.17,658.83v59.34h-229.34v-59.34h229.34m.83-.83h-231v61h231v-61h0Z"/></g><text transform="translate(1049 693.51)" fill="#fff" font-family="Helvetica, Helvetica" font-size="18"><tspan x="0" y="0">Download PDF Portfolio</tspan></text></g></g><g id="Layer_3"><g mix-blend-mode="color"><g clip-path="url(#clippath)"><image width="1600" height="1200" transform="translate(579 82) scale(.56)" xlink:href="Homepg21.png"/></g></g></g></g></svg>