<?xml version="1.0" encoding="UTF-8"?><svg xmlns="http://www.w3.org/2000/svg" viewBox="0 0 370 98.66"><g id="Layer_1"><g><g><circle cx="36.5" cy="36.5" r="36.09" style="fill:#333;"/><path d="M36.5,.83c19.67,0,35.67,16,35.67,35.67s-16,35.67-35.67,35.67S.83,56.17,.83,36.5,16.83,.83,36.5,.83m0-.83C16.34,0,0,16.34,0,36.5s16.34,36.5,36.5,36.5,36.5-16.34,36.5-36.5S56.66,0,36.5,0h0Z"/></g><text transform="translate(22.62 49.51)" style="fill:#fff; font-family:Helvetica, Helvetica; font-size:36px;"><tspan x="0" y="0">G</tspan></text></g></g><g id="Layer_2"><g><g><rect x="139.41" y="13.41" width="230.17" height="60.17" style="fill:#333;"/><path d="M369.17,13.83v59.34H139.83V13.83h229.34m.83-.83H139v61h231V13h0Z"/></g><text transform="translate(157 48.51)" style="fill:#fff; font-family:Helvetica, Helvetica; font-size:18px;"><tspan x="0" y="0">Download PDF Portfolio</tspan></text></g></g></svg>